<?xml version="1.0" encoding="utf-8"?>
<!-- Generator: Adobe Illustrator 27.6.1, SVG Export Plug-In . SVG Version: 6.00 Build 0)  -->
<svg version="1.1" id="Layer_1" xmlns="http://www.w3.org/2000/svg" xmlns:xlink="http://www.w3.org/1999/xlink" x="0px" y="0px"
	 viewBox="0 0 512 640" style="enable-background:new 0 0 512 640;" xml:space="preserve">
<g>
	<g>
		<path d="M242,58.4H45.1c-4.8,0-8.7,3.9-8.7,8.6v353.5c0,4.8,3.9,8.7,8.7,8.7H242c4.8,0,8.7-3.9,8.7-8.7V67
			C250.7,62.3,246.8,58.4,242,58.4z M144.6,98.2c25.1,0,45.5,20.4,45.5,45.5c0,25.1-20.4,45.5-45.5,45.5
			c-25.1,0-45.5-20.4-45.5-45.5C99.1,118.7,119.5,98.2,144.6,98.2z M60.8,417.9c-8.2,0-14.9-6.7-14.9-14.9c0-8.2,6.7-14.9,14.9-14.9
			c8.2,0,14.9,6.7,14.9,14.9C75.6,411.2,69,417.9,60.8,417.9z M60.8,99.5c-8.2,0-14.9-6.7-14.9-14.9c0-8.2,6.7-14.9,14.9-14.9
			c8.2,0,14.9,6.7,14.9,14.9C75.6,92.8,69,99.5,60.8,99.5z M144.6,386.8c-35.7,0-64.7-29-64.7-64.7c0-35.6,29-64.6,64.7-64.6
			c35.7,0,64.7,29,64.7,64.6C209.3,357.8,180.3,386.8,144.6,386.8z M226.3,417.9c-8.2,0-14.9-6.7-14.9-14.9
			c0-8.2,6.7-14.9,14.9-14.9c8.2,0,14.9,6.7,14.9,14.9C241.2,411.2,234.5,417.9,226.3,417.9z M226.3,99.5c-8.2,0-14.9-6.7-14.9-14.9
			c0-8.2,6.7-14.9,14.9-14.9c8.2,0,14.9,6.7,14.9,14.9C241.2,92.8,234.5,99.5,226.3,99.5z"/>
		<path d="M144.6,290.5c-17.4,0-31.6,14.2-31.6,31.6c0,17.4,14.2,31.6,31.6,31.6c17.4,0,31.6-14.2,31.6-31.6
			C176.2,304.7,162,290.5,144.6,290.5z"/>
		<path d="M144.6,163.3c10.8,0,19.5-8.8,19.5-19.5c0-10.8-8.7-19.5-19.5-19.5c-10.8,0-19.5,8.8-19.5,19.5
			C125.1,154.5,133.8,163.3,144.6,163.3z"/>
		<path d="M60.8,75.7c-4.9,0-8.9,4-8.9,8.9c0,4.9,4,8.9,8.9,8.9c4.9,0,8.9-4,8.9-8.9C69.6,79.7,65.7,75.7,60.8,75.7z"/>
		<path d="M226.3,75.7c-4.9,0-8.9,4-8.9,8.9c0,4.9,4,8.9,8.9,8.9c4.9,0,8.9-4,8.9-8.9C235.2,79.7,231.2,75.7,226.3,75.7z"/>
		<path d="M60.8,394.1c-4.9,0-8.9,4-8.9,8.9s4,8.9,8.9,8.9c4.9,0,8.9-4,8.9-8.9C69.6,398.1,65.7,394.1,60.8,394.1z"/>
		<path d="M226.3,394.1c-4.9,0-8.9,4-8.9,8.9s4,8.9,8.9,8.9c4.9,0,8.9-4,8.9-8.9C235.2,398.1,231.2,394.1,226.3,394.1z"/>
		<path d="M442.2,150.1H293.2c-3.2,0-5.8,2.6-5.8,5.8v267.5c0,3.2,2.6,5.8,5.8,5.8h148.9c3.2,0,5.8-2.6,5.8-5.8V155.9
			C448,152.7,445.4,150.1,442.2,150.1z M368.5,178.8c19.4,0,35.2,15.8,35.2,35.2c0,19.4-15.8,35.2-35.2,35.2
			c-19.4,0-35.2-15.8-35.2-35.2S349.1,178.8,368.5,178.8z M305.1,422.1c-6.6,0-12-5.4-12-12c0-6.6,5.4-12,12-12c6.6,0,12,5.4,12,12
			C317.1,416.7,311.7,422.1,305.1,422.1z M305.1,181.2c-6.6,0-12-5.4-12-12c0-6.6,5.4-12,12-12c6.6,0,12,5.4,12,12
			C317.1,175.8,311.7,181.2,305.1,181.2z M368.5,398.6c-27.4,0-49.7-22.3-49.7-49.7c0-27.4,22.3-49.7,49.7-49.7
			c27.4,0,49.7,22.3,49.7,49.7C418.2,376.3,395.9,398.6,368.5,398.6z M430.3,422.1c-6.6,0-12-5.4-12-12c0-6.6,5.4-12,12-12
			c6.6,0,12,5.4,12,12C442.3,416.7,436.9,422.1,430.3,422.1z M430.3,181.2c-6.6,0-12-5.4-12-12c0-6.6,5.4-12,12-12
			c6.6,0,12,5.4,12,12C442.3,175.8,436.9,181.2,430.3,181.2z"/>
		<path d="M368.5,325.8c-12.8,0-23.2,10.4-23.2,23.2c0,12.8,10.4,23.2,23.2,23.2c12.8,0,23.2-10.4,23.2-23.2
			C391.7,336.2,381.3,325.8,368.5,325.8z"/>
		<path d="M368.5,228c7.7,0,14-6.3,14-14c0-7.7-6.3-14-14-14c-7.7,0-14.1,6.3-14.1,14C354.4,221.7,360.7,228,368.5,228z"/>
		<path d="M305.1,163.2c-3.3,0-6,2.7-6,6c0,3.3,2.7,6,6,6c3.3,0,6-2.7,6-6C311.1,165.9,308.4,163.2,305.1,163.2z"/>
		<path d="M430.3,163.2c-3.3,0-6,2.7-6,6c0,3.3,2.7,6,6,6c3.3,0,6-2.7,6-6C436.3,165.9,433.6,163.2,430.3,163.2z"/>
		<path d="M305.1,404.1c-3.3,0-6,2.7-6,6c0,3.3,2.7,6,6,6c3.3,0,6-2.7,6-6C311.1,406.8,308.4,404.1,305.1,404.1z"/>
		<path d="M430.3,404.1c-3.3,0-6,2.7-6,6c0,3.3,2.7,6,6,6c3.3,0,6-2.7,6-6C436.3,406.8,433.6,404.1,430.3,404.1z"/>
		<path d="M320.7,20.8c-1-2.9-3-5.2-5.7-6.5c-1.9-0.9-3.6-1.4-5.1-1.4c-2.7,0-5.6,1.3-9.6,4.3c-0.9,0.7-2.1,0.8-3.1,0.3
			c-1-0.5-1.7-1.5-1.7-2.7c0-7.8-1.6-11.1-6.5-13.6c-1.6-0.8-3.3-1.2-5.1-1.2c-4.4,0-8.3,2.4-10.3,6.3c-5.7,11.3-0.2,29.1,5.7,46.8
			c17.6-5.9,35.2-12.2,40.9-23.5C321.5,26.9,321.7,23.7,320.7,20.8z"/>
		<path d="M492.4,120.2c-0.5-1.6-1.7-3-3.2-3.7c-1.1-0.5-2-0.8-2.9-0.8c-1.5,0-3.2,0.8-5.7,2.6c-0.9,0.7-2.1,0.8-3.1,0.3
			c-1-0.5-1.6-1.5-1.6-2.7c0-5.2-1.1-6.6-3.6-7.9c-0.9-0.5-1.9-0.7-2.9-0.7c-2.4,0-4.7,1.4-5.8,3.6c-3.4,6.8-0.2,17.8,3.4,28.8
			c11-3.7,21.7-7.7,25.1-14.4C492.8,123.6,493,121.8,492.4,120.2z"/>
		<path d="M45,38.5c3.6-11,6.8-21.9,3.4-28.8c-1.1-2.2-3.3-3.6-5.9-3.6c-1,0-2,0.2-2.9,0.7c-2.4,1.2-3.6,2.7-3.6,7.9
			c0,1.1-0.6,2.2-1.7,2.7c-1,0.5-2.2,0.4-3.1-0.3c-2.5-1.8-4.2-2.6-5.7-2.6c-0.9,0-1.8,0.3-2.9,0.8c-3.1,1.6-4.5,5.5-2.9,8.7
			C23.4,30.9,34.1,34.9,45,38.5z"/>
	</g>
</g>
</svg>
