<?xml version="1.0" encoding="utf-8"?>
<!-- Generator: Adobe Illustrator 27.6.1, SVG Export Plug-In . SVG Version: 6.00 Build 0)  -->
<svg version="1.1" id="Layer_1" xmlns="http://www.w3.org/2000/svg" xmlns:xlink="http://www.w3.org/1999/xlink" x="0px" y="0px"
	 viewBox="0 0 128 160" style="enable-background:new 0 0 128 160;" xml:space="preserve">
<g>
	<path d="M27,91.8c-0.1-1-1-1.8-2-1.8h0c-1,0-1.9,0.8-2,1.8l-3.9,34c-0.1,1.1,0.7,2.1,1.8,2.2c1.1,0.1,2.1-0.7,2.2-1.8c0,0,0,0,0,0
		l1.9-16.7l1.9,16.7c0.1,1,1,1.8,2,1.8c0.1,0,0.2,0,0.2,0c1.1-0.1,1.9-1.1,1.8-2.2L27,91.8z"/>
	<path d="M25,24c6.6,0,12-5.4,12-12S31.6,0,25,0c-6.6,0-12,5.4-12,12C13,18.6,18.4,24,25,24z M25,4c4.4,0,8,3.6,8,8c0,4.4-3.6,8-8,8
		c-4.4,0-8-3.6-8-8C17,7.6,20.6,4,25,4z"/>
	<path d="M77.8,89.2c2.1-2.4,3.4-5.5,3.6-8.7c0.2-4.8-2.6-9.2-7-11c-3.6-1.6-7.8-1.2-11,1.2c-1-0.7-2.1-1.3-3.2-1.6
		c-1-3.2-3.4-5.8-6.5-7.1c-3.6-1.6-7.8-1.2-11,1.2c-3.2-2.3-7.4-2.8-11-1.2c-4.4,1.8-7.2,6.2-7,11c0.2,3.2,1.5,6.3,3.6,8.7
		c3,3.7,6.8,6.5,10.5,9.2c0.9,0.7,1.8,1.3,2.7,2c0.3,0.3,0.8,0.4,1.2,0.4h0c0.4,0,0.9-0.1,1.2-0.4c0.9-0.7,1.8-1.3,2.7-2
		c0.8-0.6,1.5-1.1,2.3-1.7c0,0,0.1,0.1,0.1,0.1c3,3.7,6.8,6.5,10.6,9.2c0.9,0.7,1.8,1.3,2.7,2c0.3,0.3,0.8,0.4,1.2,0.4h0
		c0.4,0,0.9-0.1,1.2-0.4c0.9-0.7,1.8-1.3,2.7-2C71,95.7,74.8,92.9,77.8,89.2z M45.3,80.5c0.1,1.8,0.6,3.6,1.4,5.2
		c-0.8,0.6-1.7,1.2-2.5,1.8c-0.5,0.4-1,0.8-1.6,1.1c-0.5-0.4-1-0.8-1.6-1.1c-3.5-2.5-7.2-5.2-9.8-8.4c-1.5-1.8-2.5-4-2.7-6.4
		c-0.1-4.3,3.3-7.8,7.6-7.8c0,0,0,0,0.1,0c1.9,0,3.7,0.8,5,2.2c0.8,0.8,2.1,0.8,2.9,0c2.1-2.2,5.3-2.8,8-1.5
		c1.5,0.6,2.7,1.7,3.5,3.1c-1.1,0.1-2.2,0.4-3.2,0.9C48,71.4,45.2,75.8,45.3,80.5z M49.9,83.2c-0.3-0.9-0.6-1.8-0.6-2.8
		c-0.1-3.1,1.7-6,4.6-7.2c0.9-0.4,1.8-0.6,2.7-0.6c0,0.1,0,0.1,0,0.2c-0.2,2.4-1.2,4.6-2.7,6.4C52.8,80.6,51.4,82,49.9,83.2z
		 M63.4,96.3c-0.5-0.4-1-0.7-1.5-1.1c-3.5-2.5-7.2-5.2-9.8-8.4c0,0,0,0,0-0.1c1.9-1.5,3.6-3.2,5.1-5c1.9-2.3,3.2-5.1,3.5-8
		c0.5,0.3,0.9,0.7,1.3,1.1c0.8,0.8,2.1,0.8,2.9,0c2.1-2.2,5.3-2.8,8-1.5c2.9,1.2,4.7,4.1,4.6,7.2c-0.2,2.4-1.2,4.6-2.7,6.4
		c-2.6,3.3-6.3,5.9-9.8,8.4C64.4,95.5,63.9,95.9,63.4,96.3z"/>
	<path d="M83.2,65.5c2.2,0.9,4.8,0.6,6.8-0.7c1.2,0.8,2.6,1.3,4.1,1.3c0.9,0,1.9-0.2,2.8-0.5c1-0.4,1.5-1.6,1-2.6
		c-0.4-1-1.6-1.5-2.6-1c-1.3,0.5-2.8,0.1-3.6-1.1c-0.8-0.9-2.1-0.9-2.9-0.2c-0.1,0.1-0.1,0.1-0.2,0.2c-0.8,1.1-2.3,1.6-3.7,1
		c-1-0.4-2.2,0-2.6,1C81.7,63.8,82.2,65,83.2,65.5L83.2,65.5z"/>
	<path d="M108.4,41.5c-0.8-1-1.9-1.8-3.1-2.2l-6.1-1.8c-0.6-0.2-1.1-0.7-1.3-1.3l-0.3-0.9c3.4-2.7,5.4-6.8,5.4-11.1
		c0.6-0.5,1-1.3,1-2.1c0-2.2-0.1-4.4-0.4-6.6c-0.7-3.1-3.2-5.7-6.6-7.2V6.9C97,3.1,93.9,0,90.1,0h-0.2C86.1,0,83,3.1,83,6.9v1.5
		c-3.4,1.5-5.9,4.1-6.6,7.2c-0.3,2.2-0.4,4.4-0.4,6.6c0,0.8,0.4,1.6,1,2.2c0,4.3,2,8.4,5.4,11.1l-0.3,0.9c-0.2,0.6-0.7,1.1-1.3,1.3
		l-6.1,1.8c-1.2,0.4-2.3,1.1-3.1,2.2L58.8,58.9l-9.3-29.7c0,0,0-0.1,0-0.1c-1.3-4.5-5.2-7.8-9.9-8.4l-0.9-0.6c-1,1.7-2.4,3.2-4,4.5
		h2.8c-1.8,6.1-4.4,11.9-7.6,17.4c1.3-5.1,1.9-10.3,1.7-15.6c-1.3,0.6-2.6,1-4,1.2c0,5.8-1,11.7-2.7,17.2
		c-1.8-5.6-2.7-11.4-2.7-17.2c-1.4-0.2-2.7-0.7-4-1.2C18.1,31.8,18.7,37,20,42.1c-3.2-5.5-5.7-11.4-7.6-17.4h2.8
		c-1.6-1.2-2.9-2.7-4-4.5l-0.9,0.6C4.4,21.5,0,26.6,0,32.7V75c0,3.3,2.7,6,6,6c0.8,0,1.7-0.2,2.4-0.5l2.6,45.6
		c0.1,1.1,1,1.9,2.1,1.9s1.9-1,1.9-2.1l0,0L12.1,75h8.7c-0.1-0.6-0.2-1.3-0.2-1.9c0-0.7,0-1.4,0.1-2.1H12V50c0-1.1-0.9-2-2-2
		s-2,0.9-2,2v11.7L7.9,73c0,0.2,0,0.4,0.1,0.6V75c0,1.1-0.9,2-2,2c-0.5,0-1-0.2-1.4-0.6C4.2,76,4,75.5,4,75V32.7
		c0-3.1,1.7-5.9,4.5-7.2C10,30.3,15,45.3,23,52v8.6c0,0.8,0.5,1.6,1.3,1.9c0.2-0.2,0.4-0.4,0.6-0.6c0.6-0.7,1.4-1.3,2.1-1.8v-8
		c8-6.7,13-21.7,14.5-26.5c2,0.9,3.5,2.7,4.1,4.7c0,0,0,0.1,0,0.1l8.7,27.6c1.4,0.5,2.7,1.2,3.9,2.1c0,0,0.1,0.1,0.1,0.1
		c0.4,0.3,0.7,0.5,1.1,0.9l0,0c0.3,0.3,0.6,0.6,0.9,0.9c0.2,0.2,0.5,0.5,0.7,0.8l13.8-18.7c0.3-0.3,0.6-0.6,1-0.7l6.1-1.8
		c1.9-0.6,3.4-2,4-3.9l0.1-0.2c2.6,0.9,5.4,0.9,8,0l0.1,0.2c0.6,1.9,2.1,3.3,4,3.9l6.1,1.8c0.4,0.1,0.8,0.4,1,0.7l18.5,25.1
		c0.6,0.9,0.4,2.1-0.4,2.7c0,0,0,0,0,0c-0.9,0.6-2.1,0.4-2.7-0.4l-14.4-19.3c-1.3-4.9-6.3-7.8-11.2-6.6c-2,0.5-3.7,1.7-4.9,3.3
		c-3.1-4-8.8-4.7-12.8-1.6c-1.6,1.3-2.8,3-3.3,5L63.4,66c1.9-0.9,4-1.4,6.1-1.4l4.4-5.8c0,0.2,0,0.3,0,0.5c0.2,2,0.2,3.9,0.2,5.9
		c1.4,0.4,2.7,1,3.9,1.7c0.2-2.6,0.2-5.3-0.1-7.9c-0.1-1.6-0.2-3.3-0.2-4.9c0-2.8,2.4-5.1,5.2-5.1c2.8,0,5,2.3,5.1,5.1
		c0,1.1,0.9,2,2,2h0.2c1.1,0,2-0.9,2-2c0-2.8,2.4-5.1,5.2-5.1c2.8,0,5,2.3,5.1,5.1c0,1.7-0.1,3.3-0.2,4.9c-0.4,3.8-0.3,7.6,0.5,11.3
		c2.2,9.4,6.4,28.8,7.9,35.8c-0.3,0-0.6,0-0.9-0.1c-1.1-0.1-2.3,0-3.4,0.1c0,0-0.1,0-0.1,0c-1.5,0.3-2.9,0.8-4.2,1.6
		c-0.2,0.1-0.5,0.2-0.7,0.4l-0.3,0l0,0.1c-0.6,0.3-1.3,0.6-2.1,0.7c-0.1,0-0.2,0-0.3,0l0,0c0,0-0.1,0-0.1,0
		c-1.1-0.1-2.2-0.3-3.2-0.7l-0.8-0.2c-1.2-0.4-2.4-0.7-3.6-0.7h0c-0.1,0-0.2,0-0.3,0h-0.1c0,0,0,0,0,0h0c-1.3,0-2.6,0.3-3.8,0.7
		l-0.6,0l0,0.2l-0.3,0.1c-1.1,0.4-2.3,0.7-3.5,0.7h0c-1.3-0.2-2.5-0.6-3.6-1.3c-1.3-0.8-2.7-1.3-4.2-1.6c0,0,0,0-0.1,0
		c-1.6-0.2-3.2-0.2-4.8-0.1c0.3-1.4,0.6-3.1,1-4.9c-0.3,0.2-0.6,0.4-0.9,0.6c-0.9,0.7-1.8,1.3-2.6,1.9c-0.4,0.3-0.8,0.5-1.2,0.7
		c-0.2,1.2-0.5,2.2-0.6,3.1c0,0.1,0,0.1,0,0.2c0,0.2-0.1,0.3-0.1,0.5l0,0c0,1.1,0.9,2,2,2c0.8,0,1.7,0,2.6-0.1c0,0,0,0,0,0
		c0,0,0,0,0,0c1.3-0.1,2.6-0.1,4,0.1l0,0l0,0c0.2,0,0.3,0.1,0.5,0.1c0.2,0,0.3,0.1,0.5,0.2l1.1,15.9c0.1,1.1,1,1.9,2.1,1.9
		c1.1-0.1,1.9-1,1.9-2.1l-1-13.7c0.6,0.3,1.2,0.5,1.9,0.6c0.4,0.1,0.8,0.2,1.3,0.2l0,0c1.2,0.1,2.4-0.1,3.6-0.5l-1.7,13.2
		c-0.1,1.1,0.6,2.1,1.7,2.2c1.1,0.1,2.1-0.6,2.2-1.7c0,0,0,0,0,0l1.9-14.9c0,0,0,0,0.1,0l1.9,14.9c0.1,1.1,1.1,1.9,2.2,1.7
		c1.1-0.1,1.9-1.1,1.7-2.2l-1.7-13.7c1.4,0.6,2.9,0.9,4.4,0.9c0.2,0,0.4,0,0.5,0c0.6,0,1.2-0.2,1.8-0.3l-0.9,13.2
		c-0.1,1.1,0.8,2.1,1.9,2.1c0,0,0,0,0,0c0,0,0.1,0,0.1,0c1,0,1.9-0.8,2-1.9l1.1-15.3c0.4-0.2,0.9-0.4,1.3-0.5
		c0.2-0.1,0.4-0.1,0.7-0.2l0,0c0.4-0.1,0.8-0.1,1.2-0.1c0.9,0,1.8,0.1,2.7,0.1c0.3,0,0.7,0,1,0.1c0.4,0,0.8,0,1.2,0.1
		c0.5,0,0.9-0.2,1.3-0.5l0,0h0c0.1-0.1,0.1-0.1,0.2-0.2c0.3-0.3,0.5-0.8,0.5-1.3c0,0,0-0.1,0-0.1c0-0.2,0-0.3-0.1-0.5
		c-0.6-2.9-5.9-27.8-8.4-38.3c-0.8-3.4-0.6-6.7-0.4-10.1c0-0.2,0-0.4,0-0.6l11.1,14.9c1.9,2.6,5.7,3.2,8.3,1.3
		c1.5-1.1,2.4-2.9,2.4-4.8c0-1.3-0.4-2.5-1.2-3.5L108.4,41.5z M87,6.9C87,5.3,88.3,4,89.9,4h0.2C91.7,4,93,5.3,93,6.9v0.3
		C92.1,7.1,91.2,7,90.2,7h-0.4c-0.9,0-1.9,0.1-2.8,0.2V6.9z M80.3,16.4C81,13.3,85,11,89.8,11h0.4c4.7,0,8.8,2.3,9.5,5.4
		c0.1,0.3,0.2,1.5,0.2,2.8c-1-1.2-1.9-2.3-2.4-2.8c-0.4-0.4-0.9-0.7-1.5-0.7h0c-0.6,0-1.1,0.2-1.5,0.6c-2.7,2.1-6.5,2.1-9.2,0
		c-0.4-0.4-0.9-0.6-1.5-0.6c-0.6,0-1.1,0.2-1.5,0.7c-0.4,0.5-1.4,1.6-2.4,2.7C80.1,17.8,80.2,16.7,80.3,16.4z M90,34
		c-4.9,0-8.9-4.4-9-9.8c0.1-0.1,0.2-0.2,0.2-0.2c0.9-1,2-2.4,3-3.4c3.6,2,8,2,11.6,0c0.9,1.1,2.1,2.4,3,3.4c0.1,0.1,0.2,0.2,0.2,0.2
		C98.9,29.6,94.9,34,90,34z"/>
	<path d="M48.6,57l-6.8-16.7c-0.4-1-1.6-1.5-2.6-1.1c-0.8,0.3-1.3,1-1.2,1.9l0,16.1c1.4,0.2,2.7,0.5,4,1.1l0-6.8l2.6,6.3
		C45.9,57.2,47.3,57,48.6,57z"/>
	<path d="M36.8,94.3L35,125.9c-0.1,1.1,0.8,2,1.9,2.1c0,0,0,0,0,0c0,0,0.1,0,0.1,0c1.1,0,1.9-0.8,2-1.9l1.7-29.3
		c-0.6-0.2-1.1-0.5-1.6-0.8C38.3,95.4,37.5,94.9,36.8,94.3z"/>
</g>
</svg>
