<?xml version="1.0" encoding="utf-8"?>
<!-- Generator: Adobe Illustrator 27.6.1, SVG Export Plug-In . SVG Version: 6.00 Build 0)  -->
<svg version="1.1" id="Layer_1" xmlns="http://www.w3.org/2000/svg" xmlns:xlink="http://www.w3.org/1999/xlink" x="0px" y="0px"
	 viewBox="0 0 100 125" style="enable-background:new 0 0 100 125;" xml:space="preserve">
<style type="text/css">
	.st0{fill-rule:evenodd;clip-rule:evenodd;}
</style>
<g>
	<path class="st0" d="M50,0C30.1,0,13.9,16.2,13.9,36.1c0,10,4.4,18.6,10.6,25.5L50,90.3l25.5-28.7c6.1-6.9,10.6-15.5,10.6-25.5
		C86.1,16.2,69.9,0,50,0z M71.8,57.9C66,63.7,58.2,67,50,67c-8.2,0-16-3.2-21.8-9c-5.8-5.8-9-13.6-9-21.8C19.1,19.1,33,5.2,50,5.2
		c17,0,30.9,13.8,30.9,30.9C80.9,44.3,77.7,52.1,71.8,57.9z"/>
	<path class="st0" d="M67.9,25.4c0.8-0.2,1.5-0.5,2.3-0.7c0.8-0.2,1.5-0.5,2.3-0.7l-9.1-5.3c0.2,0.8,0.3,1.6,0.5,2.3
		c0.2,0.7,0.3,1.4,0.5,2.1c-2-0.9-4.1-1.4-6.2-1.4c-3,0-5.8,0.9-8.2,2.5c-2.2-1.3-4.8-2-7.4-2c-2.6,0-5.2,0.7-7.5,2
		c-7.2,4.1-9.6,13.3-5.5,20.5c2.7,4.6,7.6,7.5,13,7.5c2.6,0,5.2-0.7,7.5-2c0.2-0.1,0.5-0.3,0.7-0.4c2.3,1.3,4.8,2,7.4,2
		c5.3,0,10.3-2.9,13-7.5C74.8,37.9,73.3,30,67.9,25.4z M52.9,31.2c1.6,2.8,2,6,1.2,9.1c-0.6,2.2-1.8,4.2-3.5,5.7
		c-2-1.6-3.4-3.7-4.1-6.2c-0.8-3.1-0.4-6.3,1.2-9.1c0.6-1.1,1.4-2,2.3-2.8C51.2,28.8,52.2,29.9,52.9,31.2z M32.2,43.2
		c-3.3-5.7-1.3-13.1,4.4-16.4c1.8-1.1,3.9-1.6,6-1.6c1.7,0,3.4,0.4,4.9,1c-0.9,0.9-1.6,1.9-2.2,3c-2,3.5-2.5,7.5-1.5,11.4
		c0.8,2.8,2.3,5.3,4.4,7.2c-1.7,0.9-3.6,1.4-5.5,1.4C38.3,49.2,34.3,46.9,32.2,43.2z M68.5,42.7c-2.1,3.7-6.1,6-10.4,6
		c-1.7,0-3.3-0.4-4.9-1c1.8-1.8,3.1-4.1,3.7-6.6c1-3.9,0.5-7.9-1.5-11.4c-0.8-1.4-1.8-2.6-2.9-3.6c1.7-0.9,3.6-1.4,5.6-1.4
		c2.1,0,4.2,0.6,6,1.6c2.8,1.6,4.8,4.2,5.6,7.3C70.6,36.7,70.1,39.9,68.5,42.7z"/>
	<path class="st0" d="M73.1,22c0-0.6-0.1-1.1-0.1-1.7c-1.1-0.7-2.3-1.3-3.4-2s-2.3-1.3-3.4-2c-0.5,0.3-1,0.5-1.5,0.8
		c-0.3,0.2-0.6,0.3-0.9,0.5l9.3,5.4C73.1,22.8,73.1,22.4,73.1,22z"/>
	<polygon class="st0" points="63.3,18 63.3,18 63.3,18 	"/>
	<path class="st0" d="M73.1,23.7L73.1,23.7C73.1,23.7,73.2,23.7,73.1,23.7C73.2,23.7,73.2,23.7,73.1,23.7z"/>
</g>
</svg>
