<?xml version="1.0" encoding="utf-8"?>
<!-- Generator: Adobe Illustrator 27.6.1, SVG Export Plug-In . SVG Version: 6.00 Build 0)  -->
<svg version="1.1" id="Layer_1" xmlns="http://www.w3.org/2000/svg" xmlns:xlink="http://www.w3.org/1999/xlink" x="0px" y="0px"
	 viewBox="0 0 97.1 306.4" style="enable-background:new 0 0 97.1 306.4;" xml:space="preserve">
<g>
	<path d="M21.7,70.3c4.1,1.9,8.4,3.3,12.8,4.1v56L26,231.7c-0.6,6.8,4.5,12.8,11.3,13.4c6.8,0.6,12.8-4.5,13.4-11.3l7.6-91.1h6.5
		l7.6,91.1c0.6,6.8,6.6,11.9,13.4,11.3c6.8-0.6,11.9-6.5,11.3-13.4l-8.5-101.3V82.6c-2.5,3.2-5.9,6.8-10.1,9.8
		c-4.8,3.4-9.6,5-14.6,5h0h-0.1c-3.7,0-7.6-1.1-10.9-3c-3.3-1.9-6.2-4.6-8.9-8.3c-5-6.7-9-16.1-12.6-29.2c-2.6-0.9-5.2-2.2-7.4-3.6
		c-1.7-1.1-3.2-2.3-4.4-3.5c-2.5-0.6-4.3-2.8-4.3-5.4V25.8c0-3.1,2.5-5.6,5.6-5.6h8.5c-1.1-1-1.8-2.5-1.8-4.1v-4.2
		c-1.8-0.3-3.8,0-5.5,1c-7.2,4.3-12.6,8.8-16.4,13.7C2,31.5,0,37.1,0,42.5C0,48,1.9,52.9,4.8,56.9C9,62.9,15.1,67.2,21.7,70.3z"/>
	<path d="M63,77.2c0.5,0.3,0.7,0.3,1,0.3c0.3,0,1.3-0.3,2.7-1.2c1.2-0.8,2.7-2.1,4.1-3.7l2.5-0.1c0,0,0.1,0.1,0.1,0.1
		c-0.1,0.1-0.2,0.2-0.2,0.3c-1.7,2-3.7,3.9-5.4,5c-1.8,1.2-3.1,1.5-3.9,1.5c-0.6,0-1-0.1-1.9-0.6c-1.3-0.7-3.5-2.7-5.9-7.2
		c-2.5-4.4-5.1-11.1-7.6-20.5c-1.1-4.3-5.5-6.8-9.8-5.7c-4.3,1.1-6.8,5.5-5.7,9.8c3.6,13.7,7.7,23,12.6,29.7
		c2.5,3.3,5.2,5.9,8.3,7.7c3.1,1.8,6.6,2.8,9.9,2.8c0,0,0.1,0,0.1,0c5.4,0,9.9-2.2,13.4-4.7C82.8,87,86.7,82,89.6,78
		c1.8-2.6,3.1-4.8,3.9-6.1c0.4-0.8,0.7-1.2,0.7-1.3c1.3-2.5,1.2-5.4-0.3-7.8c-1.5-2.4-4-3.8-6.8-3.8h-5.3c-0.3,0-0.6,0-0.9,0h-28
		c1.6,4.8,3.3,8.8,5,11.9C60.5,75.6,62.6,76.9,63,77.2z"/>
	<path d="M48,20.2h8.5c3.1,0,5.6,2.5,5.6,5.6v18.7c0,3.1-2.5,5.6-5.6,5.6h-6.3c0,0,0,0.1,0,0.1c3.3,1.9,7.2,3,11.3,3
		C74,53.2,84,43.1,84,30.7S74,8.2,61.5,8.2c-4.3,0-8.3,1.2-11.7,3.3v4.7C49.8,17.7,49.1,19.2,48,20.2z"/>
	<path d="M29.6,16.1c0,2,1.6,3.6,3.6,3.6h2.5v2.6H21c-2,0-3.6,1.6-3.6,3.6v18.7c0,2,1.6,3.6,3.6,3.6h11.4c1.1-1.8,2.7-3.1,4.5-3.9
		c-4.2-0.9-7.3-4.6-7.3-9c0-5.1,4.1-9.2,9.2-9.2c5.1,0,9.2,4.1,9.2,9.2c0,3.7-2.2,6.9-5.3,8.3c2.8,0.5,5.2,2.2,6.7,4.6h7.2
		c2,0,3.6-1.6,3.6-3.6V25.8c0-2-1.6-3.6-3.6-3.6H41.2v-2.6h3.1c2,0,3.6-1.6,3.6-3.6V3.6c0-2-1.6-3.6-3.6-3.6H33.2
		c-2,0-3.6,1.6-3.6,3.6C29.6,3.6,29.6,16.1,29.6,16.1z M33.5,3.6H44v6.2H33.5V3.6z"/>
	<circle cx="38.7" cy="35.1" r="6.2"/>
</g>
</svg>
