<?xml version="1.0" encoding="utf-8"?>
<!-- Generator: Adobe Illustrator 27.6.1, SVG Export Plug-In . SVG Version: 6.00 Build 0)  -->
<svg version="1.1" id="Layer_1" xmlns="http://www.w3.org/2000/svg" xmlns:xlink="http://www.w3.org/1999/xlink" x="0px" y="0px"
	 viewBox="0 0 58 73.8" style="enable-background:new 0 0 58 73.8;" xml:space="preserve">
<style type="text/css">
	.st0{fill-rule:evenodd;clip-rule:evenodd;}
</style>
<g>
	<g transform="translate(-200.000000, -731.000000)">
		<g transform="translate(200.000000, 731.000000)">
			<path class="st0" d="M2,57h6V21.3c0-0.9,0.3-1.7,0.7-2.3H4.2C3,19,2,20,2,21.2V57z M9,59H1c-0.6,0-1-0.4-1-1V21.2
				C0,18.9,1.9,17,4.2,17h8.1c0.6,0,1,0.4,1,1s-0.4,1-1,1c-1.3,0-2.3,1.1-2.3,2.3V58C10,58.6,9.6,59,9,59L9,59z"/>
			<path class="st0" d="M36,28c-0.6,0-1-0.4-1-1V11c0-5-4-9-9-9s-9,4-9,9v16c0,0.6-0.4,1-1,1s-1-0.4-1-1V11c0-6.1,4.9-11,11-11
				s11,4.9,11,11v16C37,27.6,36.6,28,36,28"/>
			<path class="st0" d="M25,19c-0.6,0-1-0.4-1-1v-4c0-5-4-9-9-9s-9,4-9,9v4c0,0.6-0.4,1-1,1s-1-0.4-1-1v-4C4,7.9,8.9,3,15,3
				s11,4.9,11,11v4C26,18.6,25.6,19,25,19"/>
			<path class="st0" d="M32,57h22V41H32V57z M55,59H31c-0.6,0-1-0.4-1-1V40c0-0.6,0.4-1,1-1h24c0.6,0,1,0.4,1,1v18
				C56,58.6,55.6,59,55,59L55,59z"/>
			<path class="st0" d="M30,39h26v-2H30V39z M57,41H29c-0.6,0-1-0.4-1-1v-4c0-0.6,0.4-1,1-1h28c0.6,0,1,0.4,1,1v4
				C58,40.6,57.6,41,57,41L57,41z"/>
			<path class="st0" d="M40,31c-1.1,0-2,0.9-2,2s0.9,2,2,2h2v-2C42,31.9,41.1,31,40,31 M43,37h-3c-2.2,0-4-1.8-4-4s1.8-4,4-4
				s4,1.8,4,4v3C44,36.6,43.6,37,43,37"/>
			<path class="st0" d="M44,35h2c1.1,0,2-0.9,2-2s-0.9-2-2-2s-2,0.9-2,2V35z M46,37h-3c-0.6,0-1-0.4-1-1v-3c0-2.2,1.8-4,4-4
				s4,1.8,4,4S48.2,37,46,37L46,37z"/>
			<path class="st0" d="M31,59H9c-0.6,0-1-0.4-1-1V21.3C8,19,9.9,17,12.3,17h27.4c2.3,0,4.2,1.9,4.2,4.2V36c0,0.6-0.4,1-1,1
				s-1-0.4-1-1V21.2c0-1.2-1-2.2-2.2-2.2H12.3c-1.3,0-2.3,1.1-2.3,2.3V57h21c0.6,0,1,0.4,1,1S31.6,59,31,59"/>
			<path class="st0" d="M42,57h2V41h-2V57z M45,59h-4c-0.6,0-1-0.4-1-1V40c0-0.6,0.4-1,1-1h4c0.6,0,1,0.4,1,1v18
				C46,58.6,45.6,59,45,59L45,59z"/>
		</g>
	</g>
</g>
</svg>
